<svg xmlns="http://www.w3.org/2000/svg" width="300" height="215" viewBox="0 0 300 215"><path d="M296 4v207h-292v-207h292m4-4h-300v215h300v-215z" fill="none"/><path fill="#FFFFFF" d="M97.583 200.955c-2.583-4.592-3.092-11.816-3.092-13.369 0-2.563 0-6.145 1.564-8.613l-5.7 1.039c-1.553 1.919-2.069 2.973-2.069 3.982l2.583-1.009c.5 0 1.039 1.009 1.523 2.028-.5 2.563-3.582 2.563-4.601 3.602-1.544 5.171 3.078 8.223 3.582 12.33m203.627-66.06c0-22.337-9.233-44.978-25.749-61.18-7.154-7.194-14.923-10.627-21.143-17.756-3.088-3.078-5.45-6.09-7.509-10.261-2.618-2.553-4.157-4.076-7.239-5.66.525 1.553 1.054 3.092 1.553 4.622h-.484c-2.593 0-5.171-1.514-7.214-3.053l2.039-2.093c-.514-.944-2.039-.944-3.108-.944-8.193-1.378-15.702 3.037-23.71 4.567v1.03c5.116 1.523 6.08 7.724 8.913 10.841h2.973c1.054 0 2.603.959 3.632.959 0-.959-1.039-3.078-1.039-3.078 1.039-1 2.039-1 3.092 0 2.523 1.553 6.13-1 8.717 3.078-3.088 0-6.21 0-8.717 1.579 0 .525 1.514 1.468 1.054 2.513-2.583-1.039-5.7 0-6.765-1.984l-.5.39c3.108 3.687 7.708 6.519 12.34 8.048 6.74 1.03 12.355-2.069 18.865-.525 23.22 11.33 39.688 37.849 39.688 64.272 0 37.808-21.618 52.726-35.056 52.726-2.603 0-6.519-1.553-8.003-2.973 1.468-5.265 2.458-11.371 2.458-20.688 0-21.822-8.653-45.527-20.483-57.573-5.66-5.685-11.761-10.291-18.105-10.291-3.053 0-6.155 0-8.223 2.583-2.538 2.028-4.106 6.185-3.562 8.738-4.117 3.088-10.816 4.592-15.962 4.592-5.685 0-12.825-2.028-19.199-7.154v-7.738c-1.468-.539-6.604-3.602-3.991-5.985 1.523.514 2.538 1.468 3.078 1.878-.525-3.322-.525-7.468-3.078-10.576-1.039 0-2.593 0-4.106-.984-1.564-1.553-3.132-3.602-3.132-6.185 1.553 2.583 4.132 1.523 5.63 3.067-2.498-6.175-1.498-8.717-6.13-17.756-1.069-4.567-5.641-7.154-8.763-10.261-1.514-1.03-2.014-2.553-3.927-2.553-2.028-.525-2.028-3.088-2.028-4.567.5 0 2.028.944 3.067 1.468-3.067-6.954-5.106-14.598-11.816-18.77l-1.564 1.039h-8.183c1.03-1.039 3.053-1.553 4.601-2.583-1.553-1.544-2.523-2.069-5.63-2.069-1.419.525-3.258 2.069-5.24 2.069h-.484c0-1.544-.579-3.647 2.468-4.622-3.053-.525-5.576-.525-9.198 0-.514 2.553-2.048 4.067-2.048 6.145-1.523 1.039-2.014 2.583-3.592 4.157 0-3.132 1.564-6.25 2.048-9.357-2.048.569-4.641 2.108-5.67 2.108-4.091-2.108-9.232-4.092-11.3-4.092 3.088 1.984 1.594 5.641 2.069 8.213l-2.048-1c-.525-2.078-3.108-3.592-3.562-6.145-3.147 0-5.201.974-7.749 2.553v.514c1.514 0 3.602 1.544 4.592 3.078-3.562 0-6.155-1.523-9.747-1.523 0 0 0-.555-.475-.555-1.364.555-2.793 2.078-3.727 3.132-3.647 3.132-6.155 5.66-7.724 10.222 1.009 0 2.538 0 3.088.555-2.078.475-3.088 3.053-5.146 3.592v7.489c-1.553 1.523-3.562 3.108-4.641 6.13-2.596 8.169-3.056 17.246-3.056 27.503-.525 2.108-1.553 2.583-2.618 3.108v7.979s3.078-2.878 4.686-3.832v6.399c-2.069 0-3.622 2.583-3.622 4.157 0 1.984.525 4.076.525 6.13 0 1.03 0 1.03.514 2.078 0-1.069.984-2.078 2.593-2.618 0 0 .984-1 3.053-1-1.514 1.523-2.069 3.602-3.053 5.641l-1.609 1.514s-.459 1.039-.459 1.579c2.069 10.531 5.106 19.794 9.233 29.865-4.117 6.659-8.777 19.469-11.855 31.824-2.583-2.583-6.155-3.078-9.263-3.078-2.887.484-5.901 1.523-8.023 4.661-3.078-1.579-7.184-1.069-9.168 1.03-4.242 3.672-4.242 5.7-4.242 8.683-1.054 1.053-3.132 3.601-3.132 7.193 0 4.641.555 7.708 3.132 11.816h77.086c-.514-1.514-1.544-3.527-2.583-4.592-1.484-3.147-.5-7.239-.5-10.302 1.523-3.078 3.078-6.05 5.171-8.643l.484-2.078 3.582-.595c2.069 0 3.632-1.484 6.21-1.484 1.594 2.078 1.594-1.553 4.132-2.603 5.63-1.039 10.871 0 13.978 4.092 0 .595.484.595.484 1.124h-2.563c-2.887-1.124-6.27-2.618-9.842-1.124 0 1.124-.555 1.124-.555 2.678v2.593c2.093 0 3.647 1.919 5.661 2.973.959-1.553 3.727-2.973 5.775-2.973 2.538 0 6.155 1.429 6.155 5.535v5.661c2.093 2.028 4.631 2.593 7.194 3.602-1 2.039-2.553 2.039-4.132 2.039h-4.076c-.514-.484-1.544-.484-1.544-2.039-1.553 2.039-2.523 4.117-3.582 6.145h59.506c-.974-2.028-2.048-3.527-2.563-4.591-1.029-3.147-1.029-7.239-1.029-10.302l5.7-7.629c3.088 0 5.66-1.029 11.291-1.514 1.079-1.594 0-2.189 4.631-2.189 3.622 0 6.21.595 7.194 1.124.525 1.054.525 1.054 0 2.039-.984 1.039-3.053-.984-4.601-.484-1.029 1.03.484 1.544.484 2.593 1.054.88-4.601-1.039-4.601-1.039s-1.039 2.973-1.523 4.021c0 0 2.028 2.028 3.053 3.078 1.009 1.514-1.514 3.078-1.514 4.631-1.039-.514-3.108-2.078-3.108-1.553-1.03 4.076 0 7.708-.525 11.816h5.66l.514-8.698c.555-5.186 6.699-14.339 10.272-14.339 2.048 0 3.632 1.039 5.061 2.108.934 1.919 3.337 2.973 3.337 3.982s-1.404 1.544-3.812 1.544c-.959 0-.959-1.544-2.538-2.553l-3.053 3.053s3.562 3.078 3.562 5.131c0 2.593-.525 3.602-2.039 5.186l-3.088-6.175c-1.544 0-4.117 3.023-4.117 4.622 0 2.039-1 3.092-1 6.145h31.464c3.602 0 6.68-.984 10.272-3.067h6.145c12.664 0 22.506-3.562 31.814-12.864 12.305-11.757 19.484-31.33 19.484-50.13m-110.544 46.546l-5.131.5c2.069 1.054 2.069 3.602 2.069 4.117 0 1.514-1.039 3.078-2.069 4.117-1.039-1.039-1.039-2.603-2.093-4.117-1 0-1.514 2.553-1.514 3.602 0 4.641 2.039 8.223 3.602 11.291h4.622c-.5-4.106-1.564-7.738-1.564-12.33 0-2.549 1.563-5.616 2.078-7.18m-67.285 6.156c0-2.039-1.468-2.563-3.562-2.563-1.03 0-3.337 1.523-3.337 2.563 0 2.078-.944 13.369-.944 13.369h3.258c1.548-4.592 4.585-10.767 4.585-13.369m-10.89-.53c-.475 0 .579 1.054-4.551-4.076-1.069 0-2.538 3.078-2.538 4.076 0 4.117.974 9.787 2.538 13.894h4.076c0-4.587.475-9.758.475-13.894m134.334-128.984c-1.039-2.108-3.088-3.067-4.631-3.067-1.523-2.118-3.602-4.716-5.7-4.716 1.564 0 3.632-1.498 6.175-1.498 1.069 2.593 3.132 4.076 3.602 6.21l.554 3.071zm-15.472-10.801h-5.66c-.974-1.564-2.538 0-3.602 0-.984 0-1.544 0-3.537-1.564 3.053 0 4.592-1.523 7.144-2.553 2.062 1.524 4.131 2.049 5.655 4.117m-12.3 58.596c-3.392-1-5.265-2.583-8.303-2.583-1.069 0-5.7 1.579-6.155 2.583-1.594-2.028.984-6.145 3.023-7.214 2.069-1.039 3.132-.5 4.117 0 0 3.108 3.537 1.564 5.385 2.583.958 1.539 1.428 2.603 1.933 4.631m-.505 7.445c-2.903 0-3.297-.38-5.251-.38-2.563 0-5.7.864-7.224 3.487-1.039-2.069-.525-3.108 0-4.392 1.514-1.514 4.117-3.602 6.155-3.602 3.433-.005 6.32 2.589 6.32 4.887m11.816 11.325c-4.117-2.583-10.302-4.147-13.694-4.147-1.933 0-8.003 2.593-10.072 4.641l-1.039-4.641c3.108-.514 3.108-3.108 5.186-3.108 1.498 0 3.527-.539 4.916-.539 1.459 0 2.403-.904 2.903-.904 2.553 0 1.484 2.523 3.053 2.523 1.544 0 2.583-1.079 3.582-1.079 2.561.005 4.63 4.132 5.165 7.254m1.538 11.316c-3.622 0-7.169-1.054-7.708-2.593-1.039-1.009 0-3.108-2.583-3.108-1.054 0-2.563 1.579-2.563 1.579-.984.5-3.792-1.579-3.792 0 0 2.593-1.943 3.562-4.507 3.562-1.069 0-2.069 0-3.132-.514v-5.106c6.645 0 6.175-2.069 9.063-2.069 1.878 0 3.373 1.009 4.945 1.009 2.583 0 1.039-1.009 3.582-1.009 2.563 0 3.562 2.069 5.171 2.537-.014 1.606 1.524 3.618 1.524 5.712m-4.591 11.005c-1.609-.475-5.226-1-5.226-2.498 0-2.069-.984-2.618-3.537-2.618-1.878 0-3.297.555-6.32 1.514 0 0-1.498-1.998-2.039-4.037 1.054-.484 5.061-1.484 6.915-1.484 3.442 0 7.079 0 7.079 1.484.01 2.035 3.128 2.534 3.128 7.639m-88.996-79.908c0 .484-1.039 5.126-1.039 5.126l-4.076 1.039 2.538-11.071c1.098 1.798 2.577 3.851 2.577 4.906m98.733 97.934c0 3.088 0 4.117-1.553 6.724l-3.108-4.686c1.069-1.484 1.069-3.582 2.593-6.115.514-.02 2.068 3.563 2.068 4.077m-12.315-6.7c-3.602 0-1.564-7.169-9.063-7.169-1.404 0-2.353 2.553-4.401 3.078 0-.525.459-3.582.459-3.582 0-1.039.525-3.108 2.538-4.117 3.812 0 2.857 1.498 5.795 2.553 1.553.525 2.593 1.564 4.671 1.564l.001 7.673zm-32.029-29.016c-4.592-2.563-7.169-7.194-11.291-11.88 4.117 0 5.146 4.117 8.233 4.671 1.009 1.009 2.014 1.544 3.053 3.078.005 0 .005 4.131.005 4.131zm-43.744-37.803c-3.132 0-4.671-1.544-6.185-4.431 0-1.514-.5-3.537 0-6.1 1.009 2.069 1.009 3.067 2.069 4.147 2.039-1.079 2.039 1.459 2.563 1.954.475 1.332 1.553 2.886 1.553 4.43m84.496 86.978c-1.069 1.564-1.069 1.564-1.553 2.998 0-2.468-3.132-4.012-5.146-8.183l2.014-3.632c1.594 1.039 3.602 2.618 3.602 5.126 0 0-.484 1.124 0 2.189.019.477 1.083.477 1.083 1.502m-10.302-14.459c0 2.069-.514 2.618-1.054 5.126-3.537-.475-3.537-4.631-4.021-5.126-2.403-3.088-5.82-.555-8.398-.555-1-3.053.525-3.053.525-5.146 1.514 0 3.108-1.009 4.537 0 2.373-1.009 3.822 1.609 6.375 1.609.497.995 1.537 3.539 2.036 4.092m-25.803-21.107c0 2.039-1.009 3.592-.5 5.661-1.039-3.067-3.108-6.145-4.132-9.233 0-.484-.525-.484.5-1 .525 0 2.603 0 2.603.514.504 1.01 1.529 2.535 1.529 4.058m-44.838-40.102c-.539 2.078-2.553 0-3.053 0h-4.631c-.569-1.03-1.054-1.553-1.054-2.553 2.039-.514 3.622-1.564 5.185-.514.98 1.513 2.039 3.067 3.553 3.067m11.34 11.576c-1.544 1.594-5.66 2.069-8.747-.569l4.076-1.754c1.594 1.284 3.657 1.768 4.671 2.323m26.298 29.001c0 3.132-.5 6.765-.5 10.302-1.544 0-1.544-1.03-1.544-3.067-.514-3.108-1.553-5.67-2.583-8.763-1.039-4.021-3.602-7.414-5.66-12.055-.5-2.069-3.118-3.088-5.155-4.641 2.523 0 5.155 0 7.224 2.028 0 1.069.514 1.564 2.039 3.088 3.622 0 2.583 4.631 5.67 6.765-1.544 1.294-2.048 2.308-3.108 3.267 1.579 1.078 3.123 1.577 3.617 3.076m-20.088-15.108c0 1.544-.974 2.014-1.933 3.108 0 0-1.889-2.603-1.889-3.622 0-2.078 0-3.088.459-4.631 1.43 1.538 3.363 3.601 3.363 5.145m48.015 46.501c0 .2-.959 1.124-.959 1.124-2.373-1.124-3.812-1.618-6.915-1.618 0-2.014-1.523-4.631-2.593-4.631-3.023 0-2.583 2.078-5.106 2.078l4.592-4.686c.5-.974.5-.974 1.553-.974 1.523.974 2.069 1.523 3.562 1.523 0 1.054 0 1.523-.525 3.078 1.579 1.039 2.538-.5 3.537 1.039 1.446.555 2.854 1.025 2.854 3.067m-41.315-35.43c0 .974-1.514 2.039-2.039 2.039 0 0-2.593-2.538-3.067-4.886-.514-2.028 1.523-5.67 1.523-5.67.514 0 1.039 1.039 1.523 1.039l.525 3.562c1.535 1.068 2.554 2.907 1.535 3.916m-39.488-49.394c-6.13-3.403-12.855-5.94-20.344-6.44 0 1.564 0 3.023-.459 3.537 5.901 2.903 11.53 5.47 16.717 10.086v4.641c-5.201-5.131-10.816-10.291-17.161-11.846-.484 1.039-2.468 2.028-2.973 4.117-3.647-2.583-7.684-5.146-11.846-5.661-1.553 0-2.603-5.385-2.603-5.385 2.603-1.03 4.147-2.603 5.186-5.186h2.039c1.553 0 1.553-.984 1.553-2.538 0-3.108-6.68-3.108-9.817-3.108-3.582 0-6.145 0-8.223 1.523-1 0-.5 1.564-.5 2.593 0 .525 1.523 1.514 1.523 1.514 1.039 0 2.069-.984 3.132-.984-.539 3.088.484 4.622 3.562 6.155l-.5 4.996c-6.185 0-10.291 2.428-14.903 4.507-1.544-1.039-2.603-2.583-3.592-4.117-6.193 2.041-16.605 10.263-16.605 10.263v-3.592c4.567-4.067 10.411-6.145 15.028-8.538v-3.527c-2.028-1.03-4.117 0-6.13 0-4.336.5-8.897 2.523-11.96 4.996 0-1.468-.484-3.487-.484-3.487 5.661-3.067 12.45-5.615 19.095-4.592v-2.108c-.525-.984-.525-2.538-1.514-2.538-3.132-3.108-6.194-7.738-6.194-10.826l2.039-.959c-.984-2.917-2.039-10.616 0-13.189-3.012-1.498-5.756-4.106-6.774-6.13-1-2.553-2.028-4.117-2.498-6.954 1.498-3.088 2.498-4.117 3.972-7.154.974 0 2.308-.525 2.793-1.564 2.513-.484 4.067-3.023 7.154-1.514 2.093 0 4.132 1.03 5.67 1.514 0 1.039 0 1.564 1 2.593 3.108 0 3.108 3.053 4.696 5.615 1.484.525 3.023.525 4.067.525 3.078.934 5.661.934 6.68 2.308 4.157-2.308 8.223-2.848 12.855-2.308.539-1.579 1.514-3.647 2.093-6.13.484 1.468.484 0 1.484 0 1.919-1.553 4.242-4.106 7.814-3.088 2.039 1.523 5.615.484 7.669 3.088 1.579 2.028 2.593 5.076 4.132 7.509-1.544 3.037 0 7.12-3.037 8.698l-3.147 3.037c-1 0-1 1.079-2.538 1.079 1.544 3.602.514 8.653-1.039 12.1 1.039-.42 2.583-.42 2.583-1.889.539.539 0 1.468 0 1.889v1.484c0 2.553-1.544 5.146-3.602 7.194-1 3.108-3.562 7.214-6.915 7.749v1c7.414 0 13.569 2.069 20.793 5.606l.029 3.436zm20.907 32.149l-2.553 1.009c-5.685 0-8.223-1.564-10.786-3.602 2.039 0 4.631-2.633 4.631-2.633 2.484 2.632 6.156 4.671 8.708 5.226m-14.407-11.556c-2.903 0-6.495 1.514-8.048-1.553 1.104-.539 2.093-2.048 3.088-3.088l4.96 4.641zm41.76 47.77c0 2.618-3.088 5.7-4.117 7.749 1.039-2.618 1.039-7.749 0-7.749-1.069-.459-3.132 0-3.132-1.009 0-1.553.569-3.602.569-4.631 0-2.039-1.618-3.088-1.618-4.106 0-3.067 3.647-3.602 4.696-5.661.514 2.039.514 4.067.514 6.68 0 1.039 1.523 4.106 0 6.68.01 1.593 3.088.523 3.088 2.047m-11.839-5.63c0 3.078-2.039 5.641-2.553 8.747 0-3.118-.514-5.67-2.513-7.738 0-1.03 1.449-1.03.475-2.553 0 0-2.862-1.553-2.862-3.602 0-2.028 1.889-3.562 2.862-5.106 0-.555 2.039.974 2.039 4.076 0 .475 0 2.069-.514 3.088-.567 1.549 3.066 1.549 3.066 3.088m-42.061-36.236c-2.538.445-4.631-2.069-7.214-3.108-1.039-2.793-1.039-5.925-2.039-7.439 2.039 1.514 6.71 1.514 5.615 6.175.006 1.266 2.059 2.305 3.638 4.372m14.178 14.359c-2.039 0-5.47 0-7.489-1.514-3.132-1.544-4.132-2.563-5.685-4.117 2.093-1.523 4.631-1.523 5.685-2.048 2.019 2.039 3.937 5.641 7.489 7.679m-85.864-78.89l-3.553 1 .5-2.583c1.03-1.498 1.514-3.037 3.053-4.601v6.184zm65.511 71.211c-2.069.525-5.641 1.553-6.659-1.009-2.763-4.671-1.419-8.763 0-12.085 1.03 2.943 1.544 5.965 2.039 8.493.504 1.999 3.581 3.018 4.62 4.601m-14.483-28.061c-.525 3.108-1.553 7.738-4.631 9.817 0-2.078-.974-3.108-2.048-4.631l-.5 1.523c0 1.03-1.039 3.108-1.039 5.146-1.039.475-3.108 1.514-5.186.475v-1.514c-.5-1-.5-3.088-.5-4.106l-.5-.525c-1.553.525-1.553 1.553-1.553 2.618-.525 1.009-1.498 2.028-1.498 3.527-2.093 0-3.132-.475-4.671-1.514v-4.631c0-1 0-1-.5-1l-2.583 2.553c-2.069-1.553-2.563-5.661-2.563-8.183 8.223-4.671 18.494-3.132 24.71-.555.984.56 2.063.56 3.062 1m26.298 41.43h-1.553c-5.685 1.848-10.261-1.564-14.883-4.631 2.538-1.039 6.155-1.579 9.208-1.579l1.579 3.108c1.573.494 4.101 2.033 5.649 3.102m-76.272-77.441l-2.593 3.132c.555 4.901-1.514 8.493-1.514 13.139l-2.594-8.222c.525-2.069 1.039-3.972 2.593-6.48l4.108-1.569zm52.557 66.111c-2.583-1.523-7.214-2.048-6.155-5.156 1-2.593 2.583-3.132 3.562-4.037.549 3.532 1.049 6.126 2.593 9.193m47.216 52.281h-.514c-1.079-1.553-1.579-2.678-2.593-2.678 1.498-5.641-1.564-10.261-2.583-14.853v-1.609c1.564 2.618 5.67 5.146 5.171 7.749.519 4.627.519 8.718.519 11.391m-11.816-19.134c-2.618 0-4.671 0-6.185-2.563-.5 0-1.378-1.523-1.889-.475-2.553 2.028-5.146-1.579-8.223-1.054-1.484 1.523-3.078 2.583-5.641 3.088v-.514c0-1.514 1-3.088 3.053-4.117 3.132 1.03 5.685-5.7 8.763-2.039 1.514.514 3.012.514 3.942.514 3.558 1.53 4.612 4.597 6.18 7.16m-46.681-41.426c0 3.647-.569 8.288-4.157 9.842l-1.039-5.186c1.534-1.018 3.088-2.038 5.196-4.656m17.001 22.457c-.974.974-3.752 2.039-5.735 2.039-3.108-2.538-5.156-5.401-8.168-9.517l8.168 1.514c1.518 1.088 4.341 4.466 5.735 5.964m30.66 29.331c-2.069-1.618-5.116-1.618-6.175-4.157-1.933-.484-3.432-.484-5.955-.484-2.093.484-4.631.484-6.669.484-.555 0 0-.484-1.094-1.039-3.053 1.039-6.155 1.039-9.208 4.147l2.538-6.175c2.069 0 3.602-1.009 4.622-1.009 2.048-.484 3.632-.484 5.201-.484v.484c5.63 0 12.15-.484 16.256 4.076l.484 4.157zm-58.507-43.509c-3.078-3.078-5.661-5.661-5.661-8.717 1.594 0 3.092 0 4.622.984.005 2.577 1.039 4.666 1.039 7.733m-9.757-14.623l-1.544 6.344c-1.544-3.067-3.108-5.83-3.622-9.482l5.166 3.138zm73.43 68.443c-.514 1.039-1.553 4.021-2.069 6.05-1.069-3.088-2.039-7.604-5.641-7.604-.525-2.078-1.054-2.678-3.132-4.157l-3.927-.555c.525 2.039 3.432 2.039 1.484 4.716 1.933 1.544 3.507 1.544 4.496 4.012 1.054 1.553 0 3.582.539 4.631l-3.108 1.514c0-2.563.5-7.574-2.903-8.613-3.053 1.039-3.592-3.088-5.67-4.212-1.009 0-1.009-2.513-2.553-1.484l-8.223 1.484 2.583-4.092c2.093-1.544 4.157-1.039 6.194-1.544l4.076-.475c4.106 0 7.549 2.014 11.666 3.602 2.039 1.03 3.012 2.513 3.012 4.696 1.107.492 3.176.492 3.176 2.031m-40.552-23.71h-1c-.484 0-4.132-1.579-5.156-2.603-.475-1.523-.475-3.088-.475-3.088h4.076l2.555 5.691zm-39.557-36.77c-3.092-1.079-6.645-4.117-7.968-6.44-.974-2.048-1.419-4.661-1.419-6.175 1.889 0 3.242 1.514 3.717 2.553v.539c2.562 3.074 5.155 5.397 5.67 9.523m24.659 17.99c-.5 2.848-2.069 3.822-4.631 7.469-1.498 1-4.631 1.553-7.669 3.023.484-1.468 1.984-2.028 3.023-3.592 1.039-1.514 3.132-4.037 3.602-5.535 2.598-1.365 3.602-1.365 5.675-1.365m37.619 49.594l-1.553 1.514c-1.544-1.514-.525-5.66-3.088-6.145-2.593 0-4.641-2.468-5.641-2.998l2.093-1.03s.974-.484 2.069 0c1.009 1.03 2.039 1.544 2.039 2.593l3.647 1.429c.434 1.57.979 3.598.434 4.637m-46.876-53.71c-1.523 3.067-3.023 5.965-6.13 6.964-1.594 0-4.132.974-7.239 0 1.553-1 3.108-1.484 5.201-2.848l4.067-4.117 4.101.001zm10.316 23.37c-2.093 1.553-3.622 1.553-6.194 1.039l-3.078-4.116h7.724l1.548 3.077zm-37.134-38.863c-2.583 2.633-5.171 3.647-6.175 6.765 0-1.544-.5-3.118-1-4.117.5-2.093 2.014-3.078 2.563-3.527 1.534.439 2.509.439 4.612.879m5.74 7.779c0 2.069-.974 4.631-3.267 7.194-.445.5-1.954 1.514-1.954 1.514 0-3.108 1.514-5.63 1.514-8.223 1.41-.485 2.733-1.509 3.707-.485m7.185 6.14l-2.028 7.519c-2.593 1.973-6.13 1-8.883 1 3.717-1 6.795-5.45 8.883-8.538.519-.49 1.043.019 2.028.019m2.562 25.983c0 1.514-.484 7.708-.484 7.708-1.009-3.562-3.602-7.194-6.699-7.194-1.514-1.553-3.053-3.088-3.537-4.631l-4.766-1.523c-2.108 0-4.622 0-6.68 1.523v-1.523l3.592-4.157c3.582.555 7.844 0 8.818 2.618 2.583 1.553 5.171 3.088 5.661 4.106v1.579c1.033.455 3.121.98 4.095 1.494m-2.562 15.943l-3.592 3.173c-1.03-1.124 0-3.632-1.553-5.226 0-1.039 1.039-1.544.525-2.014-.525-1.054-6.29-3.108-6.29-3.108-2.028-1.553-4.592-3.162-6.645-5.146-2.069-.484-3.602.514-6.185 1.009v-1.009c1.03-2.108 1.03-4.671 4.117-4.671 1.514 0 3.592 0 4.576 1.553 2.108 0 3.108 2.048 4.567 2.618 2.308 2.468 4.336 3.537 5.85 4.576 0 1.564.5 2.538 1.514 3.108 3.116.011 2.131 3.088 3.116 5.137m-7.654 7.309l-1.364 5.011-3.402-9.157c-4.132-3.632-8.717-4.157-11.3-6.25-2.069-.514-2.069 1.039-3.053 0 0-.984 0-2.603 1.514-4.076h3.053l3.088 1.484c1.553 1.618 5.146 1.618 5.146 4.686 0 .525-.475 1 1.039 3.053l4.766 1.124.513 4.125zm-14.008 5.01c0 4.117-6.724 9.787-6.724 9.787 0-2.553 1.609-5.661 1.609-8.738 0 0-2.069-2.069-4.187-2.069-1.514 1.009-1.514 2.069-2.028 3.582-1.553 3.118-4.631 6.194-5.126 9.263-.514 0-.514-.484-.514-.484 0-5.186.514-13.894 3.562-17.406 2.583-3.088 4.641-3.088 7.699-3.622l2.633.525-2.048 3.088c2.066 1.064 5.124 2.982 5.124 6.074m-18.021-3.092c0 2.069-.459 4.117-1.498 5.661-.515-2.039-1.984-4.592-4.457-4.592-2.078 4.076-2.563 5.63-.484 11.816-1.594 1.553-2.603 2.039-4.592 3.088-1.079-2.078-1.079-5.645-1.079-7.714 0-3.632.525-7.194 1.544-10.176 1.523-1.564 2.538-4.147 4.132-5.265h5.415c-2.458 0-2.458 2.189-2.458 3.687 1.458.522 3.477 1.052 3.477 3.495m-13.155 5.656c-.525 0-2.039-1.514-3.602-1.514-1.468 3.078 0 5.131 0 8.738 0 1.553-.525 3.088-.525 3.088-.934 0-2.742-2.078-3.242-4.106v-8.233l4.307-5.535c3.062 1.906 4.087 4.998 3.062 7.562m105.429-141.883c.974-2.553.974-7.12-1.079-9.557-1-2.028-3.562-3.053-6.09-5.076l-3.562 2.028c-1.848 1.03-2.783 3.053-2.783 5.496 3.258 1.468 6.844 5.59 8.358 8.698h1.553c1.51-1.589 2.509-.021 3.603-1.589m-17.081 3.107c0-1.523-.5-1.523-1.039-1.523-2.583 0-2.583-4.117-4.631-3.108-.974 0-2.048-1.03-3.582 0 0 .5 0 .5 1.039.5 2.553 0 1.594 3.602 3.602 4.132h4.611zm7.803 6.195s1.03 0 0-.569l-10.921-1.553c-.974 1.553-3.527 1.553-3.527 3.078h-1.079c1.079 4.092 1.079 8.493 1.079 13.139 2.014.484 4.037 1.553 4.037 4.622 2.093 1.054 4.132 1.564 6.115 3.118.944-.525 1.404-2.069 1.848-3.602-1.848-2.583-6.415-1.039-6.415-5.67l-3.053-1.03c0-3.012 0-5.925-.525-8.048l.525-.39c0 .39.475.959 1.484 1.984 2.093 0 4.132.525 6.115-1.039.944-.569.944-3.067 1.848-3.067.985-.009 1.93-.009 2.469-.973m-25.319-10.841c-.984-1.03-4.117.5-5.641 1.039-2.014.484-3.602 2.069-3.602 3.592h5.661c.515-1.524 2.614-3.592 3.582-4.631m-11.28-5.596c-.539-5.021-6.185-5.496-8.717-7.509h-2.094c-4.037 1.468-4.901 5.615-5.376 8.993 1.324 4.622 4.346 1.553 6.385 4.622 2.103-1.54 7.229-5.151 9.802-6.106m30.34 46.941v-2.523h-5.156l-.475.5 5.631 2.023zm-23.161-29.54c0-.959-1.039-1.984-2.538-3.078h-12.33c0 2.118 1.514 3.078 3.078 3.078 0 2.108 1.544 2.498 2.048 3.067 1.579 1.039 2.028 1.039 3.622 0 1.514 1.039 2.028-.959 2.583 0 0 3.132 0 4.471-.569 6.954-.514 3.592-3.602 3.108-6.155 4.661 0 1.523-1.544 4.117 0 5.661 1.544-1.03 2.538-1.523 5.126-2.593 0-1.523 1.594-3.067 3.602-4.117-.006-4.621 1.533-9.022 1.533-13.633m-4.102 27.012c-1.039-2.069-3.602 0-6.155-1.03 0 1.03 0 2.028 1.544 3.108 1.534-1.563 4.097-2.078 4.611-2.078"/></svg>